<svg width="54" height="11" viewBox="0 0 54 11" fill="none" xmlns="http://www.w3.org/2000/svg">
<path d="M1.79901 10.854C1.14567 10.6953 0.660341 10.1493 0.343008 9.216C0.333675 9.16 0.329008 9.048 0.329008 8.88C0.329008 8.64667 0.338341 8.418 0.357008 8.194C0.375675 7.96067 0.399008 7.82533 0.427008 7.788C0.455008 7.76933 0.469008 7.71333 0.469008 7.62C0.459675 7.564 0.492341 7.41 0.567008 7.158C0.632341 6.99 0.651008 6.84533 0.623008 6.724C0.632341 6.70533 0.646341 6.67267 0.665008 6.626C0.693008 6.57933 0.725675 6.53267 0.763008 6.486C0.809675 6.43933 0.833008 6.39267 0.833008 6.346C0.842341 6.29 0.842341 6.25267 0.833008 6.234V6.22C0.833008 6.18267 0.842341 6.136 0.861008 6.08C0.889008 6.01467 0.917008 5.96333 0.945008 5.926C0.973008 5.898 0.996341 5.86067 1.01501 5.814C1.04301 5.76733 1.06167 5.73467 1.07101 5.716C1.08034 5.65067 1.15034 5.44533 1.28101 5.1C1.42101 4.74533 1.51434 4.53067 1.56101 4.456V4.428C1.59834 4.33467 1.64967 4.23667 1.71501 4.134C1.73367 4.00333 1.79901 3.82133 1.91101 3.588C2.12567 3.112 2.42434 2.566 2.80701 1.95C3.19901 1.32467 3.50701 0.904666 3.73101 0.69C3.97367 0.409999 4.19301 0.269999 4.38901 0.269999C4.49167 0.269999 4.58501 0.311999 4.66901 0.395999C4.73434 0.461333 4.78567 0.554666 4.82301 0.676C4.86967 0.797333 4.89301 0.904666 4.89301 0.998C4.89301 1.12867 4.85567 1.19867 4.78101 1.208C4.68767 1.27333 4.54301 1.46467 4.34701 1.782C4.16034 2.09933 3.90834 2.54733 3.59101 3.126L3.38101 3.518C3.25967 3.77933 3.15234 3.99867 3.05901 4.176C2.97501 4.35333 2.91901 4.47 2.89101 4.526L2.83501 4.652C2.61101 5.128 2.40101 5.64133 2.20501 6.192C2.15834 6.248 2.12567 6.30867 2.10701 6.374C2.09767 6.43 2.09301 6.46733 2.09301 6.486C2.07434 6.47667 2.05567 6.50467 2.03701 6.57C2.02767 6.626 2.01367 6.67733 1.99501 6.724C1.92967 6.78 1.89701 6.91533 1.89701 7.13C1.81301 7.354 1.73834 7.634 1.67301 7.97C1.60767 8.306 1.57501 8.58133 1.57501 8.796C1.57501 9.00133 1.60767 9.16933 1.67301 9.3C1.74767 9.43067 1.85967 9.52867 2.00901 9.594C2.23301 9.706 2.40101 9.762 2.51301 9.762C2.57834 9.77133 2.67634 9.76667 2.80701 9.748C2.94701 9.72933 3.10567 9.706 3.28301 9.678H3.26901C3.31567 9.66867 3.57234 9.61267 4.03901 9.51C4.26301 9.482 4.44967 9.44 4.59901 9.384C4.67367 9.36533 4.77634 9.33733 4.90701 9.3C5.04701 9.25333 5.14967 9.23 5.21501 9.23C5.28034 9.22067 5.32701 9.22533 5.35501 9.244C5.41101 9.3 5.46234 9.37933 5.50901 9.482C5.56501 9.57533 5.57901 9.65933 5.55101 9.734C5.53234 9.78067 5.43434 9.87867 5.25701 10.028C5.07967 10.1867 4.88367 10.336 4.66901 10.476C4.45434 10.616 4.26767 10.7093 4.10901 10.756C3.79167 10.896 3.33434 10.966 2.73701 10.966C2.31701 10.966 2.00434 10.9287 1.79901 10.854ZM9.1874 9.972C9.1034 9.888 9.0334 9.78067 8.9774 9.65C8.93073 9.51 8.87007 9.3 8.7954 9.02C8.77673 8.964 8.7674 8.88467 8.7674 8.782C8.7674 8.67 8.7674 8.59067 8.7674 8.544C8.73007 8.628 8.6834 8.72133 8.6274 8.824C8.5714 8.91733 8.5154 8.98267 8.4594 9.02C8.24473 9.23467 8.03007 9.39333 7.8154 9.496C7.51673 9.68267 7.26007 9.776 7.0454 9.776C6.78407 9.776 6.56007 9.65467 6.3734 9.412C6.07473 9.16933 5.9254 8.88 5.9254 8.544C5.9254 8.49733 5.93473 8.40867 5.9534 8.278C5.97207 7.93267 6.01873 7.60133 6.0934 7.284C6.1774 6.96667 6.3314 6.56067 6.5554 6.066L6.9754 5.226L7.1994 4.792C7.24607 4.77333 7.32073 4.764 7.4234 4.764C7.57273 4.764 7.71273 4.792 7.8434 4.848C7.97407 4.904 8.04407 4.97867 8.0534 5.072C8.0814 5.10933 8.0954 5.17933 8.0954 5.282C8.0954 5.58067 7.9694 5.97733 7.7174 6.472L7.6054 6.738C7.4374 7.13933 7.31607 7.452 7.2414 7.676C7.16673 7.9 7.1294 8.08667 7.1294 8.236C7.1294 8.38533 7.1854 8.48333 7.2974 8.53C7.34407 8.558 7.40007 8.572 7.4654 8.572C7.65207 8.572 7.87607 8.42733 8.1374 8.138C8.40807 7.84867 8.6834 7.36333 8.9634 6.682C9.09407 6.36467 9.1734 6.038 9.2014 5.702C9.18273 5.59933 9.21073 5.48733 9.2854 5.366C9.36007 5.24467 9.45807 5.14667 9.5794 5.072C9.61673 5.016 9.66807 4.974 9.7334 4.946C9.79873 4.90867 9.84073 4.90867 9.8594 4.946L10.0834 4.932C10.1114 4.92267 10.1534 4.96467 10.2094 5.058C10.2747 5.15133 10.3214 5.20733 10.3494 5.226C10.4427 5.30067 10.4894 5.45 10.4894 5.674C10.4894 5.982 10.3774 6.40667 10.1534 6.948C9.97607 7.32133 9.85473 7.61067 9.7894 7.816C9.7334 8.012 9.70073 8.20333 9.6914 8.39C9.6914 8.586 9.7054 8.74 9.7334 8.852C9.77073 8.95467 9.85473 9.062 9.9854 9.174C10.1347 9.27667 10.1954 9.51933 10.1674 9.902C10.1487 9.96733 10.0974 10.0187 10.0134 10.056C9.9294 10.0933 9.82673 10.112 9.7054 10.112C9.50007 10.112 9.3274 10.0653 9.1874 9.972ZM13.347 4.176C13.319 4.204 13.291 4.218 13.263 4.218C13.2257 4.218 13.165 4.19 13.081 4.134C12.9877 4.12467 12.8617 4.04533 12.703 3.896C12.5537 3.74667 12.479 3.64867 12.479 3.602C12.4697 3.49 12.479 3.33133 12.507 3.126C12.535 2.91133 12.5864 2.72 12.661 2.552C12.745 2.384 12.8524 2.29533 12.983 2.286C13.0484 2.29533 13.137 2.31867 13.249 2.356C13.361 2.384 13.487 2.426 13.627 2.482C13.8044 2.83667 13.893 3.14 13.893 3.392C13.893 3.76533 13.711 4.02667 13.347 4.176ZM12.059 9.986C11.835 9.986 11.639 9.86933 11.471 9.636C11.3124 9.40267 11.2144 9.11333 11.177 8.768C11.2144 8.42267 11.2424 8.17067 11.261 8.012C11.3637 7.55467 11.4897 7.018 11.639 6.402C11.7977 5.77667 11.891 5.43133 11.919 5.366C11.9657 5.282 12.0404 5.24 12.143 5.24C12.2457 5.24 12.3577 5.282 12.479 5.366C12.6097 5.44067 12.717 5.548 12.801 5.688C12.8757 5.79067 12.913 5.90733 12.913 6.038C12.913 6.234 12.8197 6.64467 12.633 7.27C12.5024 7.73667 12.4184 8.068 12.381 8.264C12.3437 8.46 12.3297 8.67 12.339 8.894C12.3017 9.314 12.2644 9.60333 12.227 9.762C12.1897 9.92067 12.1337 9.99533 12.059 9.986ZM15.2131 10.21C14.9891 10.21 14.7558 10.1633 14.5131 10.07C14.2798 9.97667 14.0791 9.86467 13.9111 9.734C13.7524 9.594 13.6731 9.468 13.6731 9.356C13.6731 9.244 13.7244 9.174 13.8271 9.146L13.8971 9.09C13.9158 9.08067 13.9531 9.076 14.0091 9.076C14.0464 9.06667 14.0931 9.07133 14.1491 9.09C14.2051 9.09933 14.2518 9.104 14.2891 9.104C14.3544 9.12267 14.4524 9.14133 14.5831 9.16L14.9471 9.202C15.1338 9.202 15.3064 9.18333 15.4651 9.146C15.6331 9.10867 15.7171 9.06667 15.7171 9.02C15.7171 8.992 15.6798 8.94533 15.6051 8.88C15.5304 8.81467 15.4511 8.782 15.3671 8.782C15.3671 8.74467 15.2224 8.61867 14.9331 8.404C14.7744 8.28267 14.6204 8.16133 14.4711 8.04C14.3311 7.91867 14.2611 7.83 14.2611 7.774L14.2751 7.746V7.676C14.2098 7.676 14.1491 7.58733 14.0931 7.41C14.0371 7.23267 14.0091 7.06 14.0091 6.892C14.0091 6.57467 14.1491 6.22467 14.4291 5.842C14.7091 5.45933 15.0544 5.114 15.4651 4.806C15.8851 4.498 16.2818 4.288 16.6551 4.176C16.7951 4.11067 17.0004 4.078 17.2711 4.078C17.4484 4.078 17.5698 4.09667 17.6351 4.134L17.7471 4.106C17.8591 4.106 18.0038 4.19933 18.1811 4.386C18.3584 4.57267 18.4704 4.722 18.5171 4.834C18.5171 5.142 18.5078 5.38933 18.4891 5.576C18.4704 5.76267 18.4238 5.856 18.3491 5.856C18.3398 5.856 18.3258 5.86067 18.3071 5.87C18.2884 5.87933 18.2791 5.90267 18.2791 5.94C18.2791 6.07067 18.1624 6.21533 17.9291 6.374C17.7051 6.53267 17.4998 6.612 17.3131 6.612L17.2571 6.598C17.2011 6.58867 17.1171 6.53267 17.0051 6.43C16.9024 6.32733 16.8511 6.22467 16.8511 6.122C16.8511 6.094 16.9071 6.01933 17.0191 5.898C17.1311 5.77667 17.2244 5.66 17.2991 5.548C17.3831 5.42667 17.4251 5.30067 17.4251 5.17C17.4251 5.12333 17.4064 5.09533 17.3691 5.086C17.3411 5.06733 17.2804 5.058 17.1871 5.058C16.6738 5.29133 16.3051 5.51067 16.0811 5.716C16.0531 5.772 16.0251 5.814 15.9971 5.842C15.9784 5.87 15.9504 5.884 15.9131 5.884C15.9131 5.87467 15.9084 5.87 15.8991 5.87C15.8804 5.87 15.8198 5.926 15.7171 6.038C15.6144 6.14067 15.5164 6.262 15.4231 6.402C15.3391 6.542 15.2878 6.67267 15.2691 6.794L15.2411 6.836V6.906C15.2318 6.92467 15.2271 6.962 15.2271 7.018C15.2271 7.102 15.2644 7.19067 15.3391 7.284C15.4138 7.368 15.5631 7.48933 15.7871 7.648C16.2071 7.96533 16.4918 8.20333 16.6411 8.362C16.7998 8.51133 16.8978 8.64667 16.9351 8.768C17.0191 8.936 17.0611 9.08533 17.0611 9.216C17.0611 9.53333 16.8931 9.78067 16.5571 9.958C16.2304 10.126 15.7824 10.21 15.2131 10.21ZM22.9522 10.35C22.8589 10.35 22.7189 10.3033 22.5322 10.21C22.3456 10.1167 22.2522 10.0187 22.2522 9.916C22.2522 9.89733 22.2476 9.86 22.2382 9.804C22.2289 9.748 22.2102 9.692 22.1822 9.636C22.1822 9.40267 22.2056 9.216 22.2522 9.076C22.2522 8.97333 22.2662 8.86133 22.2942 8.74C22.3222 8.61867 22.3549 8.52067 22.3922 8.446C22.3922 8.37133 22.4109 8.27333 22.4482 8.152C22.4856 8.02133 22.5089 7.93267 22.5182 7.886L22.6022 7.592L22.8402 6.878C22.8869 6.766 22.9196 6.67267 22.9382 6.598C22.9569 6.52333 22.9662 6.45333 22.9662 6.388C23.0222 6.20133 23.0922 5.96333 23.1762 5.674C23.2602 5.38467 23.3302 5.13267 23.3862 4.918C23.4329 4.87133 23.4562 4.80133 23.4562 4.708C23.4749 4.652 23.5169 4.52133 23.5822 4.316C23.6476 4.10133 23.7222 3.87733 23.8062 3.644C23.9462 3.23333 24.0536 2.89733 24.1282 2.636C24.2029 2.37467 24.2402 2.19267 24.2402 2.09C24.2402 2.02467 24.2262 1.96867 24.1982 1.922C24.1796 1.866 24.1656 1.82867 24.1562 1.81C24.1189 1.71667 24.1002 1.66067 24.1002 1.642C24.1002 1.60467 24.1189 1.56733 24.1562 1.53C24.1936 1.49267 24.2216 1.45533 24.2402 1.418C24.2682 1.37133 24.2869 1.33867 24.2962 1.32C24.2962 1.28267 24.5249 1.17533 24.9822 0.998C25.4489 0.811333 25.8082 0.680666 26.0602 0.606H26.9142C27.1756 0.643333 27.4322 0.717999 27.6842 0.83C27.9362 0.942 28.1462 1.082 28.3142 1.25C28.6036 1.52067 28.8649 1.91733 29.0982 2.44C29.0982 2.47733 29.1076 2.56133 29.1262 2.692C29.1542 2.81333 29.1682 2.92067 29.1682 3.014C29.1682 3.45267 29.0096 3.95667 28.6922 4.526C28.3842 5.09533 27.9596 5.59933 27.4182 6.038C27.1102 6.28067 26.7836 6.46733 26.4382 6.598C26.1022 6.72867 25.7802 6.794 25.4722 6.794C25.3322 6.794 25.2016 6.78 25.0802 6.752C24.9122 6.68667 24.7909 6.59333 24.7162 6.472C24.6509 6.34133 24.6182 6.206 24.6182 6.066C24.6182 5.94467 24.6369 5.86533 24.6742 5.828C24.7116 5.81867 24.8142 5.814 24.9822 5.814C25.1502 5.814 25.3976 5.75333 25.7242 5.632C25.9669 5.548 26.1629 5.45933 26.3122 5.366C26.7509 5.086 27.1382 4.67533 27.4742 4.134C27.6609 3.83533 27.7542 3.38733 27.7542 2.79C27.7729 2.69667 27.7822 2.62667 27.7822 2.58C27.7822 2.39333 27.6982 2.23933 27.5302 2.118C27.3716 1.98733 27.1429 1.908 26.8442 1.88C26.7976 1.87067 26.7276 1.866 26.6342 1.866C26.4569 1.866 26.2702 1.88933 26.0742 1.936C25.8782 1.98267 25.7382 2.034 25.6542 2.09C25.6262 2.09 25.6029 2.12267 25.5842 2.188C25.5656 2.25333 25.5422 2.314 25.5142 2.37C25.5142 2.44467 25.4816 2.58467 25.4162 2.79C25.3602 2.99533 25.2996 3.18667 25.2342 3.364L25.0522 3.896C24.9309 4.204 24.8469 4.44667 24.8002 4.624C24.7722 4.74533 24.7349 4.876 24.6882 5.016C24.6416 5.14667 24.6089 5.23067 24.5902 5.268C24.5902 5.28667 24.5622 5.37067 24.5062 5.52C24.4502 5.66933 24.4082 5.79533 24.3802 5.898C24.2962 6.33667 24.1796 6.738 24.0302 7.102C23.8156 7.802 23.7082 8.292 23.7082 8.572C23.7082 8.67467 23.7222 8.74933 23.7502 8.796C23.9089 8.80533 24.0209 8.824 24.0862 8.852C24.1609 8.87067 24.1982 8.91267 24.1982 8.978C24.1982 9.09 24.0489 9.33267 23.7502 9.706C23.6662 9.92067 23.5776 10.0747 23.4842 10.168C23.3909 10.2613 23.3116 10.3127 23.2462 10.322C23.1809 10.3407 23.0829 10.35 22.9522 10.35ZM31.0398 4.176C30.9278 4.176 30.7924 4.12467 30.6338 4.022C30.4751 3.91933 30.3351 3.78867 30.2138 3.63C30.1018 3.462 30.0458 3.294 30.0458 3.126C30.0458 3.07 30.1438 2.89733 30.3398 2.608C30.4704 2.43067 30.5358 2.32333 30.5358 2.286C30.6011 2.286 30.6851 2.3 30.7878 2.328C30.8904 2.356 30.9791 2.38867 31.0538 2.426C31.1098 2.55667 31.2218 2.72467 31.3898 2.93C31.5018 3.07 31.5811 3.18667 31.6278 3.28C31.6838 3.37333 31.7118 3.47133 31.7118 3.574C31.7118 3.77933 31.6558 3.93333 31.5438 4.036C31.4411 4.12933 31.2731 4.176 31.0398 4.176ZM29.1358 9.538C29.1078 9.538 29.0378 9.51467 28.9258 9.468C28.8231 9.42133 28.7531 9.38867 28.7158 9.37C28.7158 9.342 28.7018 9.29533 28.6738 9.23C28.6551 9.15533 28.6458 9.10867 28.6458 9.09C28.5618 9.05267 28.4918 8.992 28.4358 8.908C28.3891 8.81467 28.3798 8.72133 28.4078 8.628C28.5384 8.404 28.7718 7.89067 29.1078 7.088C29.4531 6.276 29.6444 5.80933 29.6818 5.688C29.6818 5.48267 29.7471 5.338 29.8778 5.254C29.9431 5.20733 30.0084 5.184 30.0738 5.184C30.2324 5.184 30.3818 5.29133 30.5218 5.506C30.6618 5.72067 30.7318 5.97267 30.7318 6.262C30.7318 6.374 30.6244 6.696 30.4098 7.228C30.2044 7.75067 29.9711 8.278 29.7098 8.81C29.5604 9.10867 29.4484 9.30467 29.3738 9.398C29.3084 9.49133 29.2291 9.538 29.1358 9.538ZM36.6858 6.724C36.6858 6.87333 36.6111 7.256 36.4618 7.872C36.4431 7.956 36.4011 8.138 36.3358 8.418C36.2798 8.68867 36.2471 8.894 36.2378 9.034C36.2378 9.13667 36.2565 9.244 36.2938 9.356C36.3405 9.45867 36.3638 9.51933 36.3638 9.538C36.3638 9.63133 36.3218 9.72467 36.2378 9.818C36.1538 9.902 36.0465 9.944 35.9158 9.944C35.6825 9.944 35.4818 9.846 35.3138 9.65C35.1458 9.44467 35.0618 9.17867 35.0618 8.852C35.0618 8.572 35.1645 8.04933 35.3698 7.284C35.3885 7.18133 35.4025 7.10667 35.4118 7.06C35.4305 7.004 35.4398 6.95733 35.4398 6.92C35.4398 6.87333 35.4258 6.85 35.3978 6.85C35.3325 6.85 35.2391 6.89667 35.1178 6.99C34.9965 7.074 34.8658 7.172 34.7258 7.284L34.3758 7.578C34.2265 7.67133 33.9138 7.928 33.4378 8.348C33.3725 8.39467 33.2138 8.52533 32.9618 8.74C32.7191 8.94533 32.5791 9.048 32.5418 9.048C32.5045 9.048 32.4205 9.02 32.2898 8.964C32.1685 8.89867 32.0518 8.81933 31.9398 8.726C31.8371 8.63267 31.7858 8.52533 31.7858 8.404C31.7858 8.264 31.8698 7.942 32.0378 7.438C32.2058 6.934 32.4065 6.43933 32.6398 5.954C32.6678 5.87933 32.7005 5.73933 32.7378 5.534C32.7751 5.198 32.8358 4.988 32.9198 4.904C32.9758 4.81067 33.0551 4.764 33.1578 4.764C33.3445 4.764 33.5171 4.85733 33.6758 5.044C33.8438 5.23067 33.9278 5.436 33.9278 5.66C33.9278 5.81867 33.8811 6.02867 33.7878 6.29C33.7038 6.542 33.6431 6.69133 33.6058 6.738C33.6338 6.71933 33.6898 6.67267 33.7738 6.598C33.8671 6.514 33.9885 6.42533 34.1378 6.332C34.4551 6.08933 34.6931 5.926 34.8518 5.842C35.0105 5.74867 35.1225 5.67867 35.1878 5.632C35.2251 5.604 35.2531 5.58533 35.2718 5.576C35.2998 5.55733 35.3185 5.548 35.3278 5.548C35.3558 5.53867 35.4071 5.52 35.4818 5.492C35.5658 5.45467 35.6311 5.436 35.6778 5.436C35.8178 5.436 35.9625 5.48733 36.1118 5.59C36.2705 5.68333 36.3498 5.78133 36.3498 5.884C36.3498 5.912 36.3825 5.96333 36.4478 6.038C36.5131 6.10333 36.5691 6.18733 36.6158 6.29C36.6625 6.38333 36.6858 6.528 36.6858 6.724ZM39.5976 10C39.0656 10 38.6363 9.85067 38.3096 9.552C37.9829 9.25333 37.8196 8.82867 37.8196 8.278C37.8196 8.06333 37.8336 7.82533 37.8616 7.564C37.8803 7.34 37.9689 7.032 38.1276 6.64C38.2956 6.248 38.5196 5.86533 38.7996 5.492C39.0889 5.11867 39.4249 4.84333 39.8076 4.666C39.9849 4.582 40.1343 4.526 40.2556 4.498C40.3769 4.46067 40.5169 4.442 40.6756 4.442C41.0583 4.442 41.3663 4.512 41.5996 4.652C41.8423 4.792 42.0103 4.95067 42.1036 5.128C42.2063 5.30533 42.2576 5.45933 42.2576 5.59V5.66V5.702C42.2576 5.814 42.1923 6.01933 42.0616 6.318C41.9309 6.61667 41.7209 6.89667 41.4316 7.158C41.1516 7.41933 40.7876 7.564 40.3396 7.592C40.1156 7.592 39.8963 7.57333 39.6816 7.536C39.4763 7.48933 39.3456 7.466 39.2896 7.466C39.1496 7.466 39.0609 7.51733 39.0236 7.62C38.9863 7.72267 38.9676 7.89533 38.9676 8.138C38.9956 8.39933 39.0656 8.58133 39.1776 8.684C39.2989 8.78667 39.4716 8.838 39.6956 8.838C39.8076 8.838 39.9383 8.80533 40.0876 8.74C40.2369 8.66533 40.4143 8.54867 40.6196 8.39C40.7316 8.29667 40.8203 8.23133 40.8856 8.194C40.9509 8.15667 41.0303 8.138 41.1236 8.138C41.2076 8.138 41.3056 8.194 41.4176 8.306C41.5296 8.418 41.5903 8.52533 41.5996 8.628C41.5809 8.74 41.4783 8.908 41.2916 9.132C41.1049 9.356 40.8623 9.55667 40.5636 9.734C40.2649 9.91133 39.9429 10 39.5976 10ZM40.0876 6.626C40.2649 6.626 40.3863 6.60733 40.4516 6.57C40.5449 6.52333 40.6849 6.40667 40.8716 6.22C41.0676 6.024 41.1703 5.88867 41.1796 5.814C41.1796 5.72067 41.1376 5.646 41.0536 5.59C40.9789 5.52467 40.8716 5.48267 40.7316 5.464H40.5776C40.4563 5.464 40.2789 5.56667 40.0456 5.772C39.8216 5.968 39.6256 6.19667 39.4576 6.458C39.4669 6.50467 39.5369 6.54667 39.6676 6.584C39.7983 6.612 39.9383 6.626 40.0876 6.626ZM46.1494 10.168C46.0187 10.2053 45.916 10.224 45.8414 10.224C45.6827 10.224 45.5287 10.168 45.3794 10.056C45.286 9.96267 45.2207 9.86 45.1834 9.748C45.1554 9.636 45.1414 9.45867 45.1414 9.216C45.1787 8.936 45.2767 8.45533 45.4354 7.774C45.594 7.08333 45.7107 6.654 45.7854 6.486C45.8227 6.36467 45.8414 6.25733 45.8414 6.164C45.8414 6.08933 45.8134 6.038 45.7574 6.01C45.7014 5.982 45.6034 5.968 45.4634 5.968C45.258 5.968 45.0387 6.07533 44.8054 6.29C44.5814 6.49533 44.32 6.83133 44.0214 7.298C43.7227 7.774 43.5734 8.152 43.5734 8.432C43.5734 8.488 43.5827 8.544 43.6014 8.6C43.6294 8.64667 43.6714 8.67 43.7274 8.67C43.8394 8.67 43.984 8.61867 44.1614 8.516C44.2174 8.488 44.3947 8.40867 44.6934 8.278C44.796 8.278 44.8474 8.39 44.8474 8.614C44.8474 8.67933 44.8614 8.75867 44.8894 8.852C44.9174 8.94533 44.9594 9.006 45.0154 9.034C45.0434 9.07133 44.9967 9.132 44.8754 9.216C44.754 9.29067 44.6 9.37933 44.4134 9.482C44.236 9.58467 44.1147 9.65467 44.0494 9.692C43.816 9.75733 43.6247 9.79 43.4754 9.79C43.326 9.79 43.1627 9.72933 42.9854 9.608C42.8174 9.50533 42.6867 9.34667 42.5934 9.132C42.5 8.91733 42.4534 8.66533 42.4534 8.376C42.4534 8.04933 42.5187 7.69 42.6494 7.298C42.9387 6.60733 43.368 5.968 43.9374 5.38C43.984 5.33333 44.11 5.254 44.3154 5.142C44.5207 5.03 44.712 4.946 44.8894 4.89C45.1227 4.82467 45.2954 4.792 45.4074 4.792C45.6127 4.792 45.7947 4.85267 45.9534 4.974C46.0654 4.99267 46.1307 5.002 46.1494 5.002C46.2334 5.002 46.2987 4.974 46.3454 4.918C46.392 4.85267 46.448 4.736 46.5134 4.568C46.7934 3.80267 47.1667 2.84133 47.6334 1.684C47.6987 1.56267 47.75 1.43667 47.7874 1.306C47.834 1.17533 47.8714 1.096 47.8994 1.068L48.2914 0.942C48.3847 0.914 48.5014 0.960666 48.6414 1.082C48.7814 1.194 48.87 1.31067 48.9074 1.432C48.9074 1.53467 48.8654 1.73533 48.7814 2.034C48.6974 2.32333 48.5807 2.64533 48.4314 3C48.3567 3.18667 48.296 3.32667 48.2494 3.42C47.9227 4.19467 47.6987 4.77333 47.5774 5.156L47.3254 5.8C47.2134 6.03333 47.148 6.206 47.1294 6.318C47.064 6.58867 46.9894 6.82667 46.9054 7.032C46.8214 7.228 46.7747 7.34 46.7654 7.368C46.6067 7.83467 46.4947 8.194 46.4294 8.446C46.3734 8.698 46.3454 8.93133 46.3454 9.146C46.3454 9.24867 46.364 9.47733 46.4014 9.832C46.4014 9.86933 46.3734 9.92533 46.3174 10C46.2707 10.0747 46.2147 10.1307 46.1494 10.168ZM49.4302 9.804C49.3368 9.82267 49.2528 9.832 49.1782 9.832C49.0568 9.832 48.9448 9.82267 48.8422 9.804C48.7395 9.776 48.6882 9.74333 48.6882 9.706C48.6882 9.678 48.6835 9.65933 48.6742 9.65C48.6648 9.64067 48.6462 9.636 48.6182 9.636C48.5902 9.608 48.5248 9.56133 48.4222 9.496C48.3288 9.42133 48.2495 9.37 48.1842 9.342C48.0722 9.18333 48.0162 9.01067 48.0162 8.824C48.0162 8.64667 48.0722 8.362 48.1842 7.97C48.1935 7.606 48.3242 7.2 48.5762 6.752C48.8375 6.29467 49.1502 5.87467 49.5142 5.492C49.8782 5.1 50.2048 4.82 50.4942 4.652C50.6342 4.512 50.8302 4.442 51.0822 4.442C51.2782 4.442 51.4508 4.484 51.6002 4.568C51.7215 4.64267 51.8708 4.80133 52.0482 5.044C52.2348 5.28667 52.3748 5.506 52.4682 5.702C52.4868 5.76733 52.5102 5.856 52.5382 5.968C52.5755 6.08 52.5942 6.21533 52.5942 6.374L52.5662 6.766C52.4542 7.14867 52.3982 7.494 52.3982 7.802C52.3795 7.93267 52.3888 8.04 52.4262 8.124C52.4635 8.19867 52.5148 8.236 52.5802 8.236C52.6268 8.236 52.6782 8.222 52.7342 8.194C52.7902 8.166 52.8555 8.152 52.9302 8.152C53.0515 8.152 53.1542 8.18933 53.2382 8.264C53.3222 8.33867 53.3642 8.432 53.3642 8.544C53.3642 8.63733 53.3408 8.726 53.2942 8.81C53.2102 8.99667 53.0515 9.16467 52.8182 9.314C52.5942 9.46333 52.3842 9.538 52.1882 9.538C52.0295 9.538 51.8755 9.454 51.7262 9.286C51.5862 9.118 51.4742 8.89867 51.3902 8.628L51.3062 8.306L50.8022 8.768L50.4802 9.09C50.3308 9.23933 50.2468 9.328 50.2282 9.356C50.1815 9.43067 50.0975 9.50067 49.9762 9.566C49.8642 9.63133 49.6822 9.71067 49.4302 9.804ZM49.8082 8.46C49.9762 8.36667 50.1162 8.25 50.2282 8.11C50.3495 7.97 50.4988 7.774 50.6762 7.522C50.7135 7.466 50.7508 7.41 50.7882 7.354C50.8255 7.28867 50.8722 7.22333 50.9282 7.158C51.0868 6.94333 51.1988 6.77067 51.2642 6.64C51.3388 6.50933 51.3948 6.36933 51.4322 6.22C51.3948 6.09867 51.3388 5.98667 51.2642 5.884C51.1988 5.772 51.1382 5.71133 51.0822 5.702C50.8208 5.702 50.4662 6.01 50.0182 6.626C49.9715 6.69133 49.8968 6.808 49.7942 6.976C49.7008 7.144 49.6402 7.256 49.6122 7.312C49.5655 7.37733 49.5002 7.536 49.4162 7.788C49.3415 8.03067 49.3042 8.18933 49.3042 8.264C49.3042 8.46933 49.3648 8.572 49.4862 8.572C49.5795 8.572 49.6868 8.53467 49.8082 8.46Z" fill="white"/>
</svg>
