<svg width="55" height="20" viewBox="0 0 55 20" fill="none" xmlns="http://www.w3.org/2000/svg">
<rect width="55" height="20" fill="black"/>
<path d="M1.79901 14.854C1.14567 14.6953 0.660341 14.1493 0.343008 13.216C0.333675 13.16 0.329008 13.048 0.329008 12.88C0.329008 12.6467 0.338341 12.418 0.357008 12.194C0.375675 11.9607 0.399008 11.8253 0.427008 11.788C0.455008 11.7693 0.469008 11.7133 0.469008 11.62C0.459675 11.564 0.492341 11.41 0.567008 11.158C0.632341 10.99 0.651008 10.8453 0.623008 10.724C0.632341 10.7053 0.646341 10.6727 0.665008 10.626C0.693008 10.5793 0.725675 10.5327 0.763008 10.486C0.809675 10.4393 0.833008 10.3927 0.833008 10.346C0.842341 10.29 0.842341 10.2527 0.833008 10.234V10.22C0.833008 10.1827 0.842341 10.136 0.861008 10.08C0.889008 10.0147 0.917008 9.96333 0.945008 9.926C0.973008 9.898 0.996341 9.86067 1.01501 9.814C1.04301 9.76733 1.06167 9.73467 1.07101 9.716C1.08034 9.65067 1.15034 9.44533 1.28101 9.1C1.42101 8.74533 1.51434 8.53067 1.56101 8.456V8.428C1.59834 8.33467 1.64967 8.23667 1.71501 8.134C1.73367 8.00333 1.79901 7.82133 1.91101 7.588C2.12567 7.112 2.42434 6.566 2.80701 5.95C3.19901 5.32467 3.50701 4.90467 3.73101 4.69C3.97367 4.41 4.19301 4.27 4.38901 4.27C4.49167 4.27 4.58501 4.312 4.66901 4.396C4.73434 4.46133 4.78567 4.55467 4.82301 4.676C4.86967 4.79733 4.89301 4.90467 4.89301 4.998C4.89301 5.12867 4.85567 5.19867 4.78101 5.208C4.68767 5.27333 4.54301 5.46467 4.34701 5.782C4.16034 6.09933 3.90834 6.54733 3.59101 7.126L3.38101 7.518C3.25967 7.77933 3.15234 7.99867 3.05901 8.176C2.97501 8.35333 2.91901 8.47 2.89101 8.526L2.83501 8.652C2.61101 9.128 2.40101 9.64133 2.20501 10.192C2.15834 10.248 2.12567 10.3087 2.10701 10.374C2.09767 10.43 2.09301 10.4673 2.09301 10.486C2.07434 10.4767 2.05567 10.5047 2.03701 10.57C2.02767 10.626 2.01367 10.6773 1.99501 10.724C1.92967 10.78 1.89701 10.9153 1.89701 11.13C1.81301 11.354 1.73834 11.634 1.67301 11.97C1.60767 12.306 1.57501 12.5813 1.57501 12.796C1.57501 13.0013 1.60767 13.1693 1.67301 13.3C1.74767 13.4307 1.85967 13.5287 2.00901 13.594C2.23301 13.706 2.40101 13.762 2.51301 13.762C2.57834 13.7713 2.67634 13.7667 2.80701 13.748C2.94701 13.7293 3.10567 13.706 3.28301 13.678H3.26901C3.31567 13.6687 3.57234 13.6127 4.03901 13.51C4.26301 13.482 4.44967 13.44 4.59901 13.384C4.67367 13.3653 4.77634 13.3373 4.90701 13.3C5.04701 13.2533 5.14967 13.23 5.21501 13.23C5.28034 13.2207 5.32701 13.2253 5.35501 13.244C5.41101 13.3 5.46234 13.3793 5.50901 13.482C5.56501 13.5753 5.57901 13.6593 5.55101 13.734C5.53234 13.7807 5.43434 13.8787 5.25701 14.028C5.07967 14.1867 4.88367 14.336 4.66901 14.476C4.45434 14.616 4.26767 14.7093 4.10901 14.756C3.79167 14.896 3.33434 14.966 2.73701 14.966C2.31701 14.966 2.00434 14.9287 1.79901 14.854ZM9.1874 13.972C9.1034 13.888 9.0334 13.7807 8.9774 13.65C8.93073 13.51 8.87007 13.3 8.7954 13.02C8.77673 12.964 8.7674 12.8847 8.7674 12.782C8.7674 12.67 8.7674 12.5907 8.7674 12.544C8.73007 12.628 8.6834 12.7213 8.6274 12.824C8.5714 12.9173 8.5154 12.9827 8.4594 13.02C8.24473 13.2347 8.03007 13.3933 7.8154 13.496C7.51673 13.6827 7.26007 13.776 7.0454 13.776C6.78407 13.776 6.56007 13.6547 6.3734 13.412C6.07473 13.1693 5.9254 12.88 5.9254 12.544C5.9254 12.4973 5.93473 12.4087 5.9534 12.278C5.97207 11.9327 6.01873 11.6013 6.0934 11.284C6.1774 10.9667 6.3314 10.5607 6.5554 10.066L6.9754 9.226L7.1994 8.792C7.24607 8.77333 7.32073 8.764 7.4234 8.764C7.57273 8.764 7.71273 8.792 7.8434 8.848C7.97407 8.904 8.04407 8.97867 8.0534 9.072C8.0814 9.10933 8.0954 9.17933 8.0954 9.282C8.0954 9.58067 7.9694 9.97733 7.7174 10.472L7.6054 10.738C7.4374 11.1393 7.31607 11.452 7.2414 11.676C7.16673 11.9 7.1294 12.0867 7.1294 12.236C7.1294 12.3853 7.1854 12.4833 7.2974 12.53C7.34407 12.558 7.40007 12.572 7.4654 12.572C7.65207 12.572 7.87607 12.4273 8.1374 12.138C8.40807 11.8487 8.6834 11.3633 8.9634 10.682C9.09407 10.3647 9.1734 10.038 9.2014 9.702C9.18273 9.59933 9.21073 9.48733 9.2854 9.366C9.36007 9.24467 9.45807 9.14667 9.5794 9.072C9.61673 9.016 9.66807 8.974 9.7334 8.946C9.79873 8.90867 9.84073 8.90867 9.8594 8.946L10.0834 8.932C10.1114 8.92267 10.1534 8.96467 10.2094 9.058C10.2747 9.15133 10.3214 9.20733 10.3494 9.226C10.4427 9.30067 10.4894 9.45 10.4894 9.674C10.4894 9.982 10.3774 10.4067 10.1534 10.948C9.97607 11.3213 9.85473 11.6107 9.7894 11.816C9.7334 12.012 9.70073 12.2033 9.6914 12.39C9.6914 12.586 9.7054 12.74 9.7334 12.852C9.77073 12.9547 9.85473 13.062 9.9854 13.174C10.1347 13.2767 10.1954 13.5193 10.1674 13.902C10.1487 13.9673 10.0974 14.0187 10.0134 14.056C9.9294 14.0933 9.82673 14.112 9.7054 14.112C9.50007 14.112 9.3274 14.0653 9.1874 13.972ZM13.347 8.176C13.319 8.204 13.291 8.218 13.263 8.218C13.2257 8.218 13.165 8.19 13.081 8.134C12.9877 8.12467 12.8617 8.04533 12.703 7.896C12.5537 7.74667 12.479 7.64867 12.479 7.602C12.4697 7.49 12.479 7.33133 12.507 7.126C12.535 6.91133 12.5864 6.72 12.661 6.552C12.745 6.384 12.8524 6.29533 12.983 6.286C13.0484 6.29533 13.137 6.31867 13.249 6.356C13.361 6.384 13.487 6.426 13.627 6.482C13.8044 6.83667 13.893 7.14 13.893 7.392C13.893 7.76533 13.711 8.02667 13.347 8.176ZM12.059 13.986C11.835 13.986 11.639 13.8693 11.471 13.636C11.3124 13.4027 11.2144 13.1133 11.177 12.768C11.2144 12.4227 11.2424 12.1707 11.261 12.012C11.3637 11.5547 11.4897 11.018 11.639 10.402C11.7977 9.77667 11.891 9.43133 11.919 9.366C11.9657 9.282 12.0404 9.24 12.143 9.24C12.2457 9.24 12.3577 9.282 12.479 9.366C12.6097 9.44067 12.717 9.548 12.801 9.688C12.8757 9.79067 12.913 9.90733 12.913 10.038C12.913 10.234 12.8197 10.6447 12.633 11.27C12.5024 11.7367 12.4184 12.068 12.381 12.264C12.3437 12.46 12.3297 12.67 12.339 12.894C12.3017 13.314 12.2644 13.6033 12.227 13.762C12.1897 13.9207 12.1337 13.9953 12.059 13.986ZM15.2131 14.21C14.9891 14.21 14.7558 14.1633 14.5131 14.07C14.2798 13.9767 14.0791 13.8647 13.9111 13.734C13.7524 13.594 13.6731 13.468 13.6731 13.356C13.6731 13.244 13.7244 13.174 13.8271 13.146L13.8971 13.09C13.9158 13.0807 13.9531 13.076 14.0091 13.076C14.0464 13.0667 14.0931 13.0713 14.1491 13.09C14.2051 13.0993 14.2518 13.104 14.2891 13.104C14.3544 13.1227 14.4524 13.1413 14.5831 13.16L14.9471 13.202C15.1338 13.202 15.3064 13.1833 15.4651 13.146C15.6331 13.1087 15.7171 13.0667 15.7171 13.02C15.7171 12.992 15.6798 12.9453 15.6051 12.88C15.5304 12.8147 15.4511 12.782 15.3671 12.782C15.3671 12.7447 15.2224 12.6187 14.9331 12.404C14.7744 12.2827 14.6204 12.1613 14.4711 12.04C14.3311 11.9187 14.2611 11.83 14.2611 11.774L14.2751 11.746V11.676C14.2098 11.676 14.1491 11.5873 14.0931 11.41C14.0371 11.2327 14.0091 11.06 14.0091 10.892C14.0091 10.5747 14.1491 10.2247 14.4291 9.842C14.7091 9.45933 15.0544 9.114 15.4651 8.806C15.8851 8.498 16.2818 8.288 16.6551 8.176C16.7951 8.11067 17.0004 8.078 17.2711 8.078C17.4484 8.078 17.5698 8.09667 17.6351 8.134L17.7471 8.106C17.8591 8.106 18.0038 8.19933 18.1811 8.386C18.3584 8.57267 18.4704 8.722 18.5171 8.834C18.5171 9.142 18.5078 9.38933 18.4891 9.576C18.4704 9.76267 18.4238 9.856 18.3491 9.856C18.3398 9.856 18.3258 9.86067 18.3071 9.87C18.2884 9.87933 18.2791 9.90267 18.2791 9.94C18.2791 10.0707 18.1624 10.2153 17.9291 10.374C17.7051 10.5327 17.4998 10.612 17.3131 10.612L17.2571 10.598C17.2011 10.5887 17.1171 10.5327 17.0051 10.43C16.9024 10.3273 16.8511 10.2247 16.8511 10.122C16.8511 10.094 16.9071 10.0193 17.0191 9.898C17.1311 9.77667 17.2244 9.66 17.2991 9.548C17.3831 9.42667 17.4251 9.30067 17.4251 9.17C17.4251 9.12333 17.4064 9.09533 17.3691 9.086C17.3411 9.06733 17.2804 9.058 17.1871 9.058C16.6738 9.29133 16.3051 9.51067 16.0811 9.716C16.0531 9.772 16.0251 9.814 15.9971 9.842C15.9784 9.87 15.9504 9.884 15.9131 9.884C15.9131 9.87467 15.9084 9.87 15.8991 9.87C15.8804 9.87 15.8198 9.926 15.7171 10.038C15.6144 10.1407 15.5164 10.262 15.4231 10.402C15.3391 10.542 15.2878 10.6727 15.2691 10.794L15.2411 10.836V10.906C15.2318 10.9247 15.2271 10.962 15.2271 11.018C15.2271 11.102 15.2644 11.1907 15.3391 11.284C15.4138 11.368 15.5631 11.4893 15.7871 11.648C16.2071 11.9653 16.4918 12.2033 16.6411 12.362C16.7998 12.5113 16.8978 12.6467 16.9351 12.768C17.0191 12.936 17.0611 13.0853 17.0611 13.216C17.0611 13.5333 16.8931 13.7807 16.5571 13.958C16.2304 14.126 15.7824 14.21 15.2131 14.21ZM22.9522 14.35C22.8589 14.35 22.7189 14.3033 22.5322 14.21C22.3456 14.1167 22.2522 14.0187 22.2522 13.916C22.2522 13.8973 22.2476 13.86 22.2382 13.804C22.2289 13.748 22.2102 13.692 22.1822 13.636C22.1822 13.4027 22.2056 13.216 22.2522 13.076C22.2522 12.9733 22.2662 12.8613 22.2942 12.74C22.3222 12.6187 22.3549 12.5207 22.3922 12.446C22.3922 12.3713 22.4109 12.2733 22.4482 12.152C22.4856 12.0213 22.5089 11.9327 22.5182 11.886L22.6022 11.592L22.8402 10.878C22.8869 10.766 22.9196 10.6727 22.9382 10.598C22.9569 10.5233 22.9662 10.4533 22.9662 10.388C23.0222 10.2013 23.0922 9.96333 23.1762 9.674C23.2602 9.38467 23.3302 9.13267 23.3862 8.918C23.4329 8.87133 23.4562 8.80133 23.4562 8.708C23.4749 8.652 23.5169 8.52133 23.5822 8.316C23.6476 8.10133 23.7222 7.87733 23.8062 7.644C23.9462 7.23333 24.0536 6.89733 24.1282 6.636C24.2029 6.37467 24.2402 6.19267 24.2402 6.09C24.2402 6.02467 24.2262 5.96867 24.1982 5.922C24.1796 5.866 24.1656 5.82867 24.1562 5.81C24.1189 5.71667 24.1002 5.66067 24.1002 5.642C24.1002 5.60467 24.1189 5.56733 24.1562 5.53C24.1936 5.49267 24.2216 5.45533 24.2402 5.418C24.2682 5.37133 24.2869 5.33867 24.2962 5.32C24.2962 5.28267 24.5249 5.17533 24.9822 4.998C25.4489 4.81133 25.8082 4.68067 26.0602 4.606H26.9142C27.1756 4.64333 27.4322 4.718 27.6842 4.83C27.9362 4.942 28.1462 5.082 28.3142 5.25C28.6036 5.52067 28.8649 5.91733 29.0982 6.44C29.0982 6.47733 29.1076 6.56133 29.1262 6.692C29.1542 6.81333 29.1682 6.92067 29.1682 7.014C29.1682 7.45267 29.0096 7.95667 28.6922 8.526C28.3842 9.09533 27.9596 9.59933 27.4182 10.038C27.1102 10.2807 26.7836 10.4673 26.4382 10.598C26.1022 10.7287 25.7802 10.794 25.4722 10.794C25.3322 10.794 25.2016 10.78 25.0802 10.752C24.9122 10.6867 24.7909 10.5933 24.7162 10.472C24.6509 10.3413 24.6182 10.206 24.6182 10.066C24.6182 9.94467 24.6369 9.86533 24.6742 9.828C24.7116 9.81867 24.8142 9.814 24.9822 9.814C25.1502 9.814 25.3976 9.75333 25.7242 9.632C25.9669 9.548 26.1629 9.45933 26.3122 9.366C26.7509 9.086 27.1382 8.67533 27.4742 8.134C27.6609 7.83533 27.7542 7.38733 27.7542 6.79C27.7729 6.69667 27.7822 6.62667 27.7822 6.58C27.7822 6.39333 27.6982 6.23933 27.5302 6.118C27.3716 5.98733 27.1429 5.908 26.8442 5.88C26.7976 5.87067 26.7276 5.866 26.6342 5.866C26.4569 5.866 26.2702 5.88933 26.0742 5.936C25.8782 5.98267 25.7382 6.034 25.6542 6.09C25.6262 6.09 25.6029 6.12267 25.5842 6.188C25.5656 6.25333 25.5422 6.314 25.5142 6.37C25.5142 6.44467 25.4816 6.58467 25.4162 6.79C25.3602 6.99533 25.2996 7.18667 25.2342 7.364L25.0522 7.896C24.9309 8.204 24.8469 8.44667 24.8002 8.624C24.7722 8.74533 24.7349 8.876 24.6882 9.016C24.6416 9.14667 24.6089 9.23067 24.5902 9.268C24.5902 9.28667 24.5622 9.37067 24.5062 9.52C24.4502 9.66933 24.4082 9.79533 24.3802 9.898C24.2962 10.3367 24.1796 10.738 24.0302 11.102C23.8156 11.802 23.7082 12.292 23.7082 12.572C23.7082 12.6747 23.7222 12.7493 23.7502 12.796C23.9089 12.8053 24.0209 12.824 24.0862 12.852C24.1609 12.8707 24.1982 12.9127 24.1982 12.978C24.1982 13.09 24.0489 13.3327 23.7502 13.706C23.6662 13.9207 23.5776 14.0747 23.4842 14.168C23.3909 14.2613 23.3116 14.3127 23.2462 14.322C23.1809 14.3407 23.0829 14.35 22.9522 14.35ZM31.0398 8.176C30.9278 8.176 30.7924 8.12467 30.6338 8.022C30.4751 7.91933 30.3351 7.78867 30.2138 7.63C30.1018 7.462 30.0458 7.294 30.0458 7.126C30.0458 7.07 30.1438 6.89733 30.3398 6.608C30.4704 6.43067 30.5358 6.32333 30.5358 6.286C30.6011 6.286 30.6851 6.3 30.7878 6.328C30.8904 6.356 30.9791 6.38867 31.0538 6.426C31.1098 6.55667 31.2218 6.72467 31.3898 6.93C31.5018 7.07 31.5811 7.18667 31.6278 7.28C31.6838 7.37333 31.7118 7.47133 31.7118 7.574C31.7118 7.77933 31.6558 7.93333 31.5438 8.036C31.4411 8.12933 31.2731 8.176 31.0398 8.176ZM29.1358 13.538C29.1078 13.538 29.0378 13.5147 28.9258 13.468C28.8231 13.4213 28.7531 13.3887 28.7158 13.37C28.7158 13.342 28.7018 13.2953 28.6738 13.23C28.6551 13.1553 28.6458 13.1087 28.6458 13.09C28.5618 13.0527 28.4918 12.992 28.4358 12.908C28.3891 12.8147 28.3798 12.7213 28.4078 12.628C28.5384 12.404 28.7718 11.8907 29.1078 11.088C29.4531 10.276 29.6444 9.80933 29.6818 9.688C29.6818 9.48267 29.7471 9.338 29.8778 9.254C29.9431 9.20733 30.0084 9.184 30.0738 9.184C30.2324 9.184 30.3818 9.29133 30.5218 9.506C30.6618 9.72067 30.7318 9.97267 30.7318 10.262C30.7318 10.374 30.6244 10.696 30.4098 11.228C30.2044 11.7507 29.9711 12.278 29.7098 12.81C29.5604 13.1087 29.4484 13.3047 29.3738 13.398C29.3084 13.4913 29.2291 13.538 29.1358 13.538ZM36.6858 10.724C36.6858 10.8733 36.6111 11.256 36.4618 11.872C36.4431 11.956 36.4011 12.138 36.3358 12.418C36.2798 12.6887 36.2471 12.894 36.2378 13.034C36.2378 13.1367 36.2565 13.244 36.2938 13.356C36.3405 13.4587 36.3638 13.5193 36.3638 13.538C36.3638 13.6313 36.3218 13.7247 36.2378 13.818C36.1538 13.902 36.0465 13.944 35.9158 13.944C35.6825 13.944 35.4818 13.846 35.3138 13.65C35.1458 13.4447 35.0618 13.1787 35.0618 12.852C35.0618 12.572 35.1645 12.0493 35.3698 11.284C35.3885 11.1813 35.4025 11.1067 35.4118 11.06C35.4305 11.004 35.4398 10.9573 35.4398 10.92C35.4398 10.8733 35.4258 10.85 35.3978 10.85C35.3325 10.85 35.2391 10.8967 35.1178 10.99C34.9965 11.074 34.8658 11.172 34.7258 11.284L34.3758 11.578C34.2265 11.6713 33.9138 11.928 33.4378 12.348C33.3725 12.3947 33.2138 12.5253 32.9618 12.74C32.7191 12.9453 32.5791 13.048 32.5418 13.048C32.5045 13.048 32.4205 13.02 32.2898 12.964C32.1685 12.8987 32.0518 12.8193 31.9398 12.726C31.8371 12.6327 31.7858 12.5253 31.7858 12.404C31.7858 12.264 31.8698 11.942 32.0378 11.438C32.2058 10.934 32.4065 10.4393 32.6398 9.954C32.6678 9.87933 32.7005 9.73933 32.7378 9.534C32.7751 9.198 32.8358 8.988 32.9198 8.904C32.9758 8.81067 33.0551 8.764 33.1578 8.764C33.3445 8.764 33.5171 8.85733 33.6758 9.044C33.8438 9.23067 33.9278 9.436 33.9278 9.66C33.9278 9.81867 33.8811 10.0287 33.7878 10.29C33.7038 10.542 33.6431 10.6913 33.6058 10.738C33.6338 10.7193 33.6898 10.6727 33.7738 10.598C33.8671 10.514 33.9885 10.4253 34.1378 10.332C34.4551 10.0893 34.6931 9.926 34.8518 9.842C35.0105 9.74867 35.1225 9.67867 35.1878 9.632C35.2251 9.604 35.2531 9.58533 35.2718 9.576C35.2998 9.55733 35.3185 9.548 35.3278 9.548C35.3558 9.53867 35.4071 9.52 35.4818 9.492C35.5658 9.45467 35.6311 9.436 35.6778 9.436C35.8178 9.436 35.9625 9.48733 36.1118 9.59C36.2705 9.68333 36.3498 9.78133 36.3498 9.884C36.3498 9.912 36.3825 9.96333 36.4478 10.038C36.5131 10.1033 36.5691 10.1873 36.6158 10.29C36.6625 10.3833 36.6858 10.528 36.6858 10.724ZM39.5976 14C39.0656 14 38.6363 13.8507 38.3096 13.552C37.9829 13.2533 37.8196 12.8287 37.8196 12.278C37.8196 12.0633 37.8336 11.8253 37.8616 11.564C37.8803 11.34 37.9689 11.032 38.1276 10.64C38.2956 10.248 38.5196 9.86533 38.7996 9.492C39.0889 9.11867 39.4249 8.84333 39.8076 8.666C39.9849 8.582 40.1343 8.526 40.2556 8.498C40.3769 8.46067 40.5169 8.442 40.6756 8.442C41.0583 8.442 41.3663 8.512 41.5996 8.652C41.8423 8.792 42.0103 8.95067 42.1036 9.128C42.2063 9.30533 42.2576 9.45933 42.2576 9.59V9.66V9.702C42.2576 9.814 42.1923 10.0193 42.0616 10.318C41.9309 10.6167 41.7209 10.8967 41.4316 11.158C41.1516 11.4193 40.7876 11.564 40.3396 11.592C40.1156 11.592 39.8963 11.5733 39.6816 11.536C39.4763 11.4893 39.3456 11.466 39.2896 11.466C39.1496 11.466 39.0609 11.5173 39.0236 11.62C38.9863 11.7227 38.9676 11.8953 38.9676 12.138C38.9956 12.3993 39.0656 12.5813 39.1776 12.684C39.2989 12.7867 39.4716 12.838 39.6956 12.838C39.8076 12.838 39.9383 12.8053 40.0876 12.74C40.2369 12.6653 40.4143 12.5487 40.6196 12.39C40.7316 12.2967 40.8203 12.2313 40.8856 12.194C40.9509 12.1567 41.0303 12.138 41.1236 12.138C41.2076 12.138 41.3056 12.194 41.4176 12.306C41.5296 12.418 41.5903 12.5253 41.5996 12.628C41.5809 12.74 41.4783 12.908 41.2916 13.132C41.1049 13.356 40.8623 13.5567 40.5636 13.734C40.2649 13.9113 39.9429 14 39.5976 14ZM40.0876 10.626C40.2649 10.626 40.3863 10.6073 40.4516 10.57C40.5449 10.5233 40.6849 10.4067 40.8716 10.22C41.0676 10.024 41.1703 9.88867 41.1796 9.814C41.1796 9.72067 41.1376 9.646 41.0536 9.59C40.9789 9.52467 40.8716 9.48267 40.7316 9.464H40.5776C40.4563 9.464 40.2789 9.56667 40.0456 9.772C39.8216 9.968 39.6256 10.1967 39.4576 10.458C39.4669 10.5047 39.5369 10.5467 39.6676 10.584C39.7983 10.612 39.9383 10.626 40.0876 10.626ZM46.1494 14.168C46.0187 14.2053 45.916 14.224 45.8414 14.224C45.6827 14.224 45.5287 14.168 45.3794 14.056C45.286 13.9627 45.2207 13.86 45.1834 13.748C45.1554 13.636 45.1414 13.4587 45.1414 13.216C45.1787 12.936 45.2767 12.4553 45.4354 11.774C45.594 11.0833 45.7107 10.654 45.7854 10.486C45.8227 10.3647 45.8414 10.2573 45.8414 10.164C45.8414 10.0893 45.8134 10.038 45.7574 10.01C45.7014 9.982 45.6034 9.968 45.4634 9.968C45.258 9.968 45.0387 10.0753 44.8054 10.29C44.5814 10.4953 44.32 10.8313 44.0214 11.298C43.7227 11.774 43.5734 12.152 43.5734 12.432C43.5734 12.488 43.5827 12.544 43.6014 12.6C43.6294 12.6467 43.6714 12.67 43.7274 12.67C43.8394 12.67 43.984 12.6187 44.1614 12.516C44.2174 12.488 44.3947 12.4087 44.6934 12.278C44.796 12.278 44.8474 12.39 44.8474 12.614C44.8474 12.6793 44.8614 12.7587 44.8894 12.852C44.9174 12.9453 44.9594 13.006 45.0154 13.034C45.0434 13.0713 44.9967 13.132 44.8754 13.216C44.754 13.2907 44.6 13.3793 44.4134 13.482C44.236 13.5847 44.1147 13.6547 44.0494 13.692C43.816 13.7573 43.6247 13.79 43.4754 13.79C43.326 13.79 43.1627 13.7293 42.9854 13.608C42.8174 13.5053 42.6867 13.3467 42.5934 13.132C42.5 12.9173 42.4534 12.6653 42.4534 12.376C42.4534 12.0493 42.5187 11.69 42.6494 11.298C42.9387 10.6073 43.368 9.968 43.9374 9.38C43.984 9.33333 44.11 9.254 44.3154 9.142C44.5207 9.03 44.712 8.946 44.8894 8.89C45.1227 8.82467 45.2954 8.792 45.4074 8.792C45.6127 8.792 45.7947 8.85267 45.9534 8.974C46.0654 8.99267 46.1307 9.002 46.1494 9.002C46.2334 9.002 46.2987 8.974 46.3454 8.918C46.392 8.85267 46.448 8.736 46.5134 8.568C46.7934 7.80267 47.1667 6.84133 47.6334 5.684C47.6987 5.56267 47.75 5.43667 47.7874 5.306C47.834 5.17533 47.8714 5.096 47.8994 5.068L48.2914 4.942C48.3847 4.914 48.5014 4.96067 48.6414 5.082C48.7814 5.194 48.87 5.31067 48.9074 5.432C48.9074 5.53467 48.8654 5.73533 48.7814 6.034C48.6974 6.32333 48.5807 6.64533 48.4314 7C48.3567 7.18667 48.296 7.32667 48.2494 7.42C47.9227 8.19467 47.6987 8.77333 47.5774 9.156L47.3254 9.8C47.2134 10.0333 47.148 10.206 47.1294 10.318C47.064 10.5887 46.9894 10.8267 46.9054 11.032C46.8214 11.228 46.7747 11.34 46.7654 11.368C46.6067 11.8347 46.4947 12.194 46.4294 12.446C46.3734 12.698 46.3454 12.9313 46.3454 13.146C46.3454 13.2487 46.364 13.4773 46.4014 13.832C46.4014 13.8693 46.3734 13.9253 46.3174 14C46.2707 14.0747 46.2147 14.1307 46.1494 14.168ZM49.4302 13.804C49.3368 13.8227 49.2528 13.832 49.1782 13.832C49.0568 13.832 48.9448 13.8227 48.8422 13.804C48.7395 13.776 48.6882 13.7433 48.6882 13.706C48.6882 13.678 48.6835 13.6593 48.6742 13.65C48.6648 13.6407 48.6462 13.636 48.6182 13.636C48.5902 13.608 48.5248 13.5613 48.4222 13.496C48.3288 13.4213 48.2495 13.37 48.1842 13.342C48.0722 13.1833 48.0162 13.0107 48.0162 12.824C48.0162 12.6467 48.0722 12.362 48.1842 11.97C48.1935 11.606 48.3242 11.2 48.5762 10.752C48.8375 10.2947 49.1502 9.87467 49.5142 9.492C49.8782 9.1 50.2048 8.82 50.4942 8.652C50.6342 8.512 50.8302 8.442 51.0822 8.442C51.2782 8.442 51.4508 8.484 51.6002 8.568C51.7215 8.64267 51.8708 8.80133 52.0482 9.044C52.2348 9.28667 52.3748 9.506 52.4682 9.702C52.4868 9.76733 52.5102 9.856 52.5382 9.968C52.5755 10.08 52.5942 10.2153 52.5942 10.374L52.5662 10.766C52.4542 11.1487 52.3982 11.494 52.3982 11.802C52.3795 11.9327 52.3888 12.04 52.4262 12.124C52.4635 12.1987 52.5148 12.236 52.5802 12.236C52.6268 12.236 52.6782 12.222 52.7342 12.194C52.7902 12.166 52.8555 12.152 52.9302 12.152C53.0515 12.152 53.1542 12.1893 53.2382 12.264C53.3222 12.3387 53.3642 12.432 53.3642 12.544C53.3642 12.6373 53.3408 12.726 53.2942 12.81C53.2102 12.9967 53.0515 13.1647 52.8182 13.314C52.5942 13.4633 52.3842 13.538 52.1882 13.538C52.0295 13.538 51.8755 13.454 51.7262 13.286C51.5862 13.118 51.4742 12.8987 51.3902 12.628L51.3062 12.306L50.8022 12.768L50.4802 13.09C50.3308 13.2393 50.2468 13.328 50.2282 13.356C50.1815 13.4307 50.0975 13.5007 49.9762 13.566C49.8642 13.6313 49.6822 13.7107 49.4302 13.804ZM49.8082 12.46C49.9762 12.3667 50.1162 12.25 50.2282 12.11C50.3495 11.97 50.4988 11.774 50.6762 11.522C50.7135 11.466 50.7508 11.41 50.7882 11.354C50.8255 11.2887 50.8722 11.2233 50.9282 11.158C51.0868 10.9433 51.1988 10.7707 51.2642 10.64C51.3388 10.5093 51.3948 10.3693 51.4322 10.22C51.3948 10.0987 51.3388 9.98667 51.2642 9.884C51.1988 9.772 51.1382 9.71133 51.0822 9.702C50.8208 9.702 50.4662 10.01 50.0182 10.626C49.9715 10.6913 49.8968 10.808 49.7942 10.976C49.7008 11.144 49.6402 11.256 49.6122 11.312C49.5655 11.3773 49.5002 11.536 49.4162 11.788C49.3415 12.0307 49.3042 12.1893 49.3042 12.264C49.3042 12.4693 49.3648 12.572 49.4862 12.572C49.5795 12.572 49.6868 12.5347 49.8082 12.46Z" fill="white"/>
</svg>
